<?xml version="1.0" standalone="no"?>
<!DOCTYPE svg PUBLIC "-//W3C//DTD SVG 20010904//EN"
 "http://www.w3.org/TR/2001/REC-SVG-20010904/DTD/svg10.dtd">
<svg version="1.0" xmlns="http://www.w3.org/2000/svg"
 width="300.000000pt" height="300.000000pt" viewBox="0 0 300.000000 300.000000"
 preserveAspectRatio="xMidYMid meet">

<g transform="translate(0.000000,300.000000) scale(0.100000,-0.100000)"
fill="#444" stroke="none">
<path d="M2153 2926 c-195 -74 -334 -226 -456 -499 -59 -133 -138 -369 -173
-516 -14 -58 -28 -114 -31 -125 -3 -13 -18 14 -43 83 -58 152 -135 299 -256
487 -162 252 -269 351 -444 410 -82 28 -235 25 -315 -6 -357 -138 -416 -565
-152 -1105 135 -275 387 -674 557 -880 134 -163 197 -243 328 -420 65 -88 126
-168 136 -177 16 -16 15 -19 -9 -57 -15 -22 -25 -48 -23 -58 4 -23 53 -41 76
-27 9 5 94 123 187 262 130 192 196 280 279 369 315 339 642 776 819 1097 206
372 296 781 217 990 -27 71 -90 138 -158 168 -46 20 -128 27 -237 20 -22 -2
-85 0 -140 3 -89 4 -107 2 -162 -19z m55 -105 c-154 -104 -341 -319 -432 -499
-31 -61 -42 -69 -20 -14 66 160 171 338 250 422 74 79 179 139 247 140 25 0
19 -6 -45 -49z m411 29 c49 -14 98 -65 118 -124 14 -40 18 -80 17 -191 -1
-122 -5 -155 -32 -256 -73 -276 -223 -565 -465 -896 -153 -211 -194 -255 -109
-118 187 302 344 602 417 800 126 340 126 613 0 764 l-27 31 24 0 c13 0 39 -4
57 -10z m-151 -52 c93 -97 116 -302 58 -528 -48 -190 -190 -506 -283 -629
-271 -361 -684 -852 -875 -1038 l-63 -63 -80 115 c-311 446 -656 1154 -739
1514 -14 60 -14 67 6 118 24 65 87 146 146 187 32 23 56 31 101 34 112 8 201
-56 318 -231 157 -236 287 -554 321 -784 15 -104 20 -119 39 -128 12 -5 23
-19 25 -30 3 -23 40 -32 55 -13 9 12 56 137 225 598 117 318 236 519 412 696
106 106 250 214 286 214 9 0 30 -15 48 -32z m-1918 -102 c0 -2 -18 -16 -40
-31 -76 -53 -121 -147 -140 -292 -5 -37 -16 -95 -24 -128 -30 -114 -17 -331
30 -489 24 -85 8 -62 -36 50 -74 190 -93 278 -94 444 -1 130 2 151 23 205 32
79 75 139 132 181 55 40 149 78 149 60z m231 -41 c24 -9 60 -29 79 -45 30 -26
31 -29 10 -21 -97 34 -226 16 -317 -45 -29 -19 -53 -31 -53 -26 0 18 63 92 96
112 67 42 117 48 185 25z m-175 -1065 c170 -363 420 -786 603 -1020 50 -65 50
-65 31 -85 -20 -19 -20 -19 -74 34 -105 104 -526 854 -620 1103 -32 87 -76
246 -75 273 0 6 19 -37 43 -95 23 -58 65 -152 92 -210z m1228 -632 c-5 -7 -63
-96 -130 -198 -92 -141 -142 -205 -206 -268 l-85 -83 -16 24 c-15 24 -14 25
40 78 72 71 251 273 333 377 60 76 82 100 64 70z m-465 -595 c-15 -17 -22 -17
-50 6 -24 20 -24 20 -4 35 18 13 22 13 42 -6 17 -16 20 -24 12 -35z m0 -119
c1 -6 -5 -17 -12 -23 -11 -8 -18 -7 -29 7 -21 24 -78 109 -78 117 0 11 119
-90 119 -101z"/>
</g>
</svg>
